<svg xmlns="http://www.w3.org/2000/svg" width="1400" height="846" viewBox="0 0 1400 846" role="img"
     aria-label="gregchow.net on AWS in three planes. Delivery: a visitor resolves the name at Route 53, which points at CloudFront; CloudFront serves over HTTPS with an ACM certificate and pulls the site files from an S3 bucket. Dynamic calls: home.js reads the API URLs from a JSON file in that bucket, calls API Gateway, which invokes Lambda functions that read and write the visitor counter in DynamoDB. Pipeline: a push to the GitHub repository runs GitHub Actions, whose runner syncs S3 and calls the API to clear the CloudFront cache, while Terraform builds every resource; Terraform keeps its state in a versioned S3 bucket and takes a DynamoDB lock while applying, so the project can be applied from any machine and never by two at once.">
  <title>gregchow.net on AWS: delivery, dynamic calls, pipeline</title>

  <rect width="1400" height="846" rx="8" fill="#171819"/>

  <defs>
    <style>
      .n     { fill:#202123; stroke:#383835; stroke-width:1.5; }
      .zone  { fill:#1a1b1d; stroke-width:1.5; stroke-dasharray:7 6; }
      .z-green { stroke:#199e6e; fill:#151d19; }  .z-green-t  { fill:#50b98b; }
      .z-purple{ stroke:#8353d4; fill:#1c1a21; }  .z-purple-t { fill:#aa91e4; }
      .z-orange  { stroke:#d8592b; fill:#211916; }  .z-orange-t   { fill:#e18768; }
      .cloud { fill:#242f40; stroke:#3a4e6c; stroke-width:1.5; }
      .cyl { fill:#1d2a2d; }
      .cyl-lid { fill:#283f4a; stroke:#14799c; stroke-width:1.5; }
      .t     { fill:#e4e6eb; font-family:sans-serif; font-size:25px; font-weight:600; text-anchor:middle; }
      .s     { fill:#8f9296; font-family:sans-serif; font-size:18px; text-anchor:middle; }
      .zt    { font-family:sans-serif; font-size:19px; font-weight:700; text-anchor:start; letter-spacing:.06em; }
      .lbl   { fill:#b0b3b8; font-family:sans-serif; font-size:17px; text-anchor:middle; }
      .e     { fill:none; stroke-width:3.5; stroke-linecap:round; }
      .head  { fill:none; stroke-width:3.5; stroke-linecap:round; stroke-linejoin:round; }
      .web { stroke:#199e6e; }
      .api { stroke:#8353d4; }
      .auto { stroke:#d8592b; }
    </style>
  </defs>

  <rect class="zone z-green" x="8" y="20" width="1384" height="200" rx="9"/>
  <text class="zt z-green-t" x="24" y="46">DELIVERY</text>
  <path class="cloud" d="M 51.9 154.2 L 250.1 154.2 C 275.5 154.2, 278.0 135.0, 252.6 128.2 C 278.0 107.1, 237.4 88.9, 196.7 98.5 C 186.6 69.7, 100.2 67.8, 90.0 96.6 C 46.9 90.8, 21.5 111.0, 49.4 128.2 C 24.0 135.0, 26.5 154.2, 51.9 154.2 Z"/>
  <text class="t" x="151" y="126">Internet</text>
  <text class="s" x="151" y="148">visitor</text>
  <rect class="n" x="388" y="62" width="254" height="96" rx="7"/>
  <text class="t" x="515" y="108">Route 53</text>
  <text class="s" x="515" y="133">points at CloudFront</text>
  <rect class="n" x="752" y="62" width="254" height="96" rx="7"/>
  <text class="t" x="879" y="108">CloudFront</text>
  <text class="s" x="879" y="133">ACM certificate</text>
  <g class="cyl"><rect x="1116" y="74" width="254" height="71"/>
  <ellipse cx="1243" cy="145" rx="127" ry="12"/></g>
  <ellipse class="cyl-lid" cx="1243" cy="74" rx="127" ry="12"/>
  <text class="t" x="1243" y="110">S3</text>
  <text class="s" x="1243" y="135">site files - API URLs</text>
  <rect class="zone z-purple" x="8" y="252" width="1384" height="200" rx="9"/>
  <text class="zt z-purple-t" x="24" y="278">DYNAMIC CALLS</text>
  <rect class="n" x="24" y="294" width="254" height="96" rx="7"/>
  <text class="t" x="151" y="340">home.js</text>
  <text class="s" x="151" y="365">reads URLs from S3</text>
  <rect class="n" x="388" y="294" width="254" height="96" rx="7"/>
  <text class="t" x="515" y="340">API Gateway</text>
  <text class="s" x="515" y="365">REST endpoints</text>
  <rect class="n" x="752" y="294" width="254" height="96" rx="7"/>
  <text class="t" x="879" y="340">Lambda</text>
  <text class="s" x="879" y="365">visitorCount - timeCount</text>
  <g class="cyl"><rect x="1116" y="306" width="254" height="71"/>
  <ellipse cx="1243" cy="377" rx="127" ry="12"/></g>
  <ellipse class="cyl-lid" cx="1243" cy="306" rx="127" ry="12"/>
  <text class="t" x="1243" y="342">DynamoDB</text>
  <text class="s" x="1243" y="367">counter tables</text>
  <rect class="zone z-orange" x="8" y="484" width="1384" height="342" rx="9"/>
  <text class="zt z-orange-t" x="24" y="510">PIPELINE</text>
  <rect class="n" x="24" y="524" width="254" height="96" rx="7"/>
  <text class="t" x="151" y="570">GitHub</text>
  <text class="s" x="151" y="595">repository</text>
  <rect class="n" x="388" y="524" width="254" height="96" rx="7"/>
  <text class="t" x="515" y="570">GitHub Actions</text>
  <text class="s" x="515" y="595">Pytest - build</text>
  <rect class="n" x="752" y="524" width="254" height="96" rx="7"/>
  <text class="t" x="879" y="570">Runner</text>
  <text class="s" x="879" y="595">syncs S3, clears cache</text>
  <rect class="n" x="1116" y="524" width="254" height="96" rx="7"/>
  <text class="t" x="1243" y="570">Terraform</text>
  <text class="s" x="1243" y="595">builds every resource</text>
  <path class="e web" d="M284 110 H368"/>
  <path class="head web" d="M-5 -4 Q5 0 -5 4" transform="translate(376 110)"/>
  <text class="lbl" x="326" y="94">resolve</text>
  <path class="e web" d="M648 110 H732"/>
  <path class="head web" d="M-5 -4 Q5 0 -5 4" transform="translate(740 110)"/>
  <text class="lbl" x="690" y="94">HTTPS</text>
  <path class="e web" d="M1012 110 H1096"/>
  <path class="head web" d="M-5 -4 Q5 0 -5 4" transform="translate(1104 110)"/>
  <text class="lbl" x="1054" y="94">origin</text>
  <path class="e api" d="M284 342 H368"/>
  <path class="head api" d="M-5 -4 Q5 0 -5 4" transform="translate(376 342)"/>
  <text class="lbl" x="326" y="326">calls</text>
  <path class="e api" d="M648 342 H732"/>
  <path class="head api" d="M-5 -4 Q5 0 -5 4" transform="translate(740 342)"/>
  <text class="lbl" x="690" y="326">invokes</text>
  <path class="e api" d="M1012 342 H1096"/>
  <path class="head api" d="M-5 -4 Q5 0 -5 4" transform="translate(1104 342)"/>
  <text class="lbl" x="1054" y="326">counter</text>
  <path class="e auto" d="M284 572 H368"/>
  <path class="head auto" d="M-5 -4 Q5 0 -5 4" transform="translate(376 572)"/>
  <text class="lbl" x="326" y="556">git push</text>
  <path class="e auto" d="M648 572 H732"/>
  <path class="head auto" d="M-5 -4 Q5 0 -5 4" transform="translate(740 572)"/>
  <text class="lbl" x="690" y="556">runs</text>
  <path class="e auto" d="M1012 572 H1096"/>
  <path class="head auto" d="M-5 -4 Q5 0 -5 4" transform="translate(1104 572)"/>
  <text class="lbl" x="1054" y="556">provisions</text>

  <path class="e auto" d="M1243 166 V244 H240 V274"/>
  <path class="head auto" d="M-5 -4 Q5 0 -5 4" transform="translate(240 282) rotate(90)"/>
  <text class="lbl" x="700" y="236">API URLs from S3</text>

  <path class="e auto" d="M879 516 V476 H515 V410"/>
  <path class="head auto" d="M-5 -4 Q5 0 -5 4" transform="translate(515 402) rotate(-90)"/>
  <text class="lbl" x="700" y="468">clears CloudFront cache</text>

  <g class="cyl"><rect x="1116" y="680" width="254" height="71"/>
  <ellipse cx="1243" cy="751" rx="127" ry="12"/></g>
  <ellipse class="cyl-lid" cx="1243" cy="680" rx="127" ry="12"/>
  <text class="t" x="1243" y="716">Remote State</text>
  <text class="s" x="1243" y="741">versioned S3 - lock table</text>
  <path class="e auto" d="M1243 628 V652"/>
  <path class="head auto" d="M-5 -4 Q5 0 -5 4" transform="translate(1243 660) rotate(90)"/>
  <text class="lbl" x="1150" y="649">state + lock</text>
</svg>
